<svg width="27" height="33" viewBox="0 0 27 33" fill="none" xmlns="http://www.w3.org/2000/svg">
<path d="M22.6252 17.73C22.588 13.7012 26.0085 11.7412 26.1649 11.65C24.2277 8.89624 21.2252 8.51999 20.17 8.48999C17.6483 8.23124 15.2021 9.96124 13.9175 9.96124C12.6072 9.96124 10.629 8.51499 8.49697 8.55749C5.75338 8.59874 3.18672 10.1475 1.77902 12.5525C-1.1261 17.4562 1.04056 24.6625 3.8239 28.6262C5.2162 30.5675 6.84313 32.735 8.97261 32.6587C11.0559 32.575 11.8342 31.3637 14.3483 31.3637C16.8393 31.3637 17.57 32.6587 19.7418 32.61C21.9777 32.575 23.3854 30.66 24.729 28.7012C26.338 26.4762 26.9842 24.285 27.0098 24.1725C26.9572 24.155 22.6675 22.5587 22.6252 17.73Z" fill="white"/>
<path d="M18.5226 5.88249C19.6431 4.51624 20.4098 2.65749 20.197 0.77124C18.5752 0.84124 16.547 1.86499 15.379 3.20124C14.3457 4.37874 13.4226 6.30874 13.6611 8.12374C15.4829 8.25624 17.3534 7.22749 18.5226 5.88249Z" fill="white"/>
</svg>
