<svg width="14" height="7" viewBox="0 0 14 7" fill="none" xmlns="http://www.w3.org/2000/svg">
<path fill-rule="evenodd" clip-rule="evenodd" d="M0.645917 0.145917C0.692363 0.0993537 0.747539 0.0624107 0.808284 0.0372043C0.869029 0.0119978 0.93415 -0.000976562 0.999917 -0.000976562C1.06568 -0.000976562 1.13081 0.0119978 1.19155 0.0372043C1.2523 0.0624107 1.30747 0.0993537 1.35392 0.145917L6.99992 5.79292L12.6459 0.145917C12.6924 0.099429 12.7476 0.0625527 12.8083 0.0373936C12.8691 0.0122345 12.9342 -0.000714779 12.9999 -0.000714779C13.0657 -0.000714779 13.1308 0.0122345 13.1915 0.0373936C13.2522 0.0625527 13.3074 0.099429 13.3539 0.145917C13.4004 0.192405 13.4373 0.247594 13.4624 0.308333C13.4876 0.369073 13.5005 0.434173 13.5005 0.499917C13.5005 0.565661 13.4876 0.630761 13.4624 0.691501C13.4373 0.75224 13.4004 0.807429 13.3539 0.853917L7.35392 6.85392C7.30747 6.90048 7.2523 6.93742 7.19155 6.96263C7.13081 6.98784 7.06568 7.00081 6.99992 7.00081C6.93415 7.00081 6.86903 6.98784 6.80828 6.96263C6.74754 6.93742 6.69236 6.90048 6.64592 6.85392L0.645917 0.853917C0.599354 0.807471 0.562411 0.752296 0.537205 0.691551C0.511998 0.630806 0.499023 0.565684 0.499023 0.499917C0.499023 0.43415 0.511998 0.369028 0.537205 0.308283C0.562411 0.247538 0.599354 0.192363 0.645917 0.145917Z" fill="black"/>
</svg>
