<svg width="122" height="40" viewBox="0 0 122 40" fill="none" xmlns="http://www.w3.org/2000/svg">
<path d="M20.511 1.4707C15.5349 1.63273 10.8232 3.69725 7.39171 7.21922C3.96022 10.7412 2.08371 15.4385 2.1667 20.2987C2.2497 25.1588 4.28554 29.7925 7.83538 33.2008C11.3852 36.6092 16.1648 38.5192 21.1437 38.5192C26.1226 38.5192 30.9021 36.6092 34.4519 33.2008C38.0018 29.7925 40.0376 25.1588 40.1206 20.2987C40.2036 15.4385 38.3271 10.7412 34.8956 7.21922C31.4641 3.69725 26.7525 1.63273 21.7763 1.4707H20.511ZM47.0824 1.4707C42.1063 1.63273 37.3946 3.69725 33.9631 7.21922C30.5316 10.7412 28.6551 15.4385 28.7381 20.2987C28.8211 25.1588 30.857 29.7925 34.4068 33.2008C37.9567 36.6092 42.7362 38.5192 47.7151 38.5192C52.694 38.5192 57.4735 36.6092 61.0234 33.2008C64.5732 29.7925 66.6091 25.1588 66.692 20.2987C66.775 15.4385 64.8985 10.7412 61.467 7.21922C58.0355 3.69725 53.3239 1.63273 48.3477 1.4707H47.0824ZM73.6539 1.4707C68.6777 1.63273 63.9661 3.69725 60.5346 7.21922C57.1031 10.7412 55.2266 15.4385 55.3096 20.2987C55.3926 25.1588 57.4284 29.7925 60.9782 33.2008C64.5281 36.6092 69.3076 38.5192 74.2865 38.5192C79.2654 38.5192 84.045 36.6092 87.5948 33.2008C91.1446 29.7925 93.1805 25.1588 93.2635 20.2987C93.3465 15.4385 91.47 10.7412 88.0385 7.21922C84.607 3.69725 79.8953 1.63273 74.9192 1.4707H73.6539ZM100.225 1.4707C95.2492 1.63273 90.5375 3.69725 87.106 7.21922C83.6745 10.7412 81.798 15.4385 81.881 20.2987C81.964 25.1588 83.9998 29.7925 87.5497 33.2008C91.0995 36.6092 95.879 38.5192 100.858 38.5192C105.837 38.5192 110.616 36.6092 114.166 33.2008C117.716 29.7925 119.752 25.1588 119.835 20.2987C119.918 15.4385 118.041 10.7412 114.61 7.21922C111.178 3.69725 106.467 1.63273 101.491 1.4707H100.225Z" stroke="black" stroke-width="2.88235"/>
</svg>
