<svg width="28" height="12" viewBox="0 0 28 12" fill="none" xmlns="http://www.w3.org/2000/svg">
<path d="M27.6024 5.32529C24.8836 3.69108 21.5326 2.9043 18.6991 2.97632L16.3303 0.607454C16.01 0.287099 15.4905 0.287099 15.1702 0.607454C14.8498 0.92781 14.8498 1.44717 15.1702 1.76753L17.073 3.6703C15.312 4.63875 13.5289 4.68469 12.0236 4.39091C11.9681 4.19715 11.9546 4.1504 11.2886 1.83583C11.1634 1.40041 10.7091 1.14885 10.2735 1.27414C9.83816 1.39937 9.58666 1.85382 9.71184 2.28918L10.157 3.83655C9.1863 3.49317 8.18449 3.25364 7.16102 3.11966C7.29807 2.81609 7.38305 2.465 7.38305 2.06251C7.38305 1.60948 7.01577 1.2422 6.56275 1.2422C6.10972 1.2422 5.74245 1.60948 5.74245 2.06251C5.74245 2.63513 5.26054 2.91387 5.0605 3.00493C5.00275 3.01477 3.54835 3.30598 0.659958 3.88309C0.0125752 4.01242 -0.226352 4.81954 0.252596 5.27924L1.09702 6.08992L0.488242 6.9053C0.301923 7.15489 0.272939 7.48854 0.413649 7.76646C1.07421 9.07178 2.39277 9.88267 3.85476 9.88267H4.56504C4.90825 10.8988 5.86987 11.6327 7.0003 11.6327C8.13073 11.6327 9.09234 10.8988 9.43556 9.88267H18.5648C18.908 10.8988 19.8696 11.6327 21.0001 11.6327C22.1305 11.6327 23.0921 10.8988 23.4353 9.88267H24.1456C26.2709 9.88267 27.9999 8.15364 27.9999 6.02834C28.0001 5.74047 27.8491 5.4736 27.6024 5.32529ZM7.0003 9.99205C6.48766 9.99205 6.07062 9.575 6.07062 9.06237C6.07062 8.54974 6.48766 8.13269 7.0003 8.13269C7.51293 8.13269 7.92997 8.54974 7.92997 9.06237C7.92997 9.575 7.51293 9.99205 7.0003 9.99205ZM21.0001 9.99205C20.4875 9.99205 20.0705 9.575 20.0705 9.06237C20.0705 8.54974 20.4875 8.13269 21.0001 8.13269C21.5128 8.13269 21.9298 8.54974 21.9298 9.06237C21.9298 9.575 21.5128 9.99205 21.0001 9.99205ZM24.1457 8.24207H23.4354C23.0922 7.22598 22.1306 6.49209 21.0002 6.49209C19.8698 6.49209 18.9081 7.22598 18.5649 8.24207H9.43561C9.0924 7.22598 8.13078 6.49209 7.00035 6.49209C5.86992 6.49209 4.90831 7.22598 4.56509 8.24207H3.85476C3.17938 8.24207 2.55721 7.94074 2.14203 7.43259L2.84519 6.49067C3.09281 6.15899 3.05453 5.69481 2.75594 5.40819L2.52237 5.18398L5.28001 4.63301C6.85839 4.6422 8.39481 4.9235 9.84795 5.4695C9.90991 5.49279 9.97171 5.51451 10.0336 5.53665L9.76663 6.07045C9.56396 6.47563 9.72813 6.96836 10.1333 7.17103C10.54 7.37446 11.032 7.20799 11.2339 6.8043L11.6423 5.98782C14.1533 6.49406 16.5766 6.05005 18.6553 4.6189C21.0083 4.53621 23.9209 5.1568 26.3139 6.47606C26.1062 7.48285 25.2129 8.24207 24.1457 8.24207Z" fill="black"/>
</svg>
