<svg width="16" height="17" viewBox="0 0 16 17" fill="none" xmlns="http://www.w3.org/2000/svg">
<path fill-rule="evenodd" clip-rule="evenodd" d="M0 2.5C0 1.96957 0.210714 1.46086 0.585786 1.08579C0.960859 0.710714 1.46957 0.5 2 0.5L14 0.5C14.5304 0.5 15.0391 0.710714 15.4142 1.08579C15.7893 1.46086 16 1.96957 16 2.5V14.5C16 15.0304 15.7893 15.5391 15.4142 15.9142C15.0391 16.2893 14.5304 16.5 14 16.5H2C1.46957 16.5 0.960859 16.2893 0.585786 15.9142C0.210714 15.5391 0 15.0304 0 14.5V2.5ZM15 4.5H11V7.5H15V4.5ZM15 8.5H11V11.5H15V8.5ZM15 12.5H11V15.5H14C14.2652 15.5 14.5196 15.3946 14.7071 15.2071C14.8946 15.0196 15 14.7652 15 14.5V12.5ZM10 15.5V12.5H6V15.5H10ZM5 15.5V12.5H1V14.5C1 14.7652 1.10536 15.0196 1.29289 15.2071C1.48043 15.3946 1.73478 15.5 2 15.5H5ZM1 11.5H5V8.5H1V11.5ZM1 7.5H5V4.5H1V7.5ZM6 4.5V7.5H10V4.5H6ZM10 8.5H6V11.5H10V8.5Z" fill="black"/>
</svg>
