<svg width="54" height="52" viewBox="0 0 54 52" fill="none" xmlns="http://www.w3.org/2000/svg">
<path fill-rule="evenodd" clip-rule="evenodd" d="M39.0246 3.25855C47.3427 7.55357 53.0249 16.1166 53.0249 25.9871C53.0249 35.8577 47.3427 44.4477 39.0246 48.7164V45.7815C42.2057 43.9131 44.8966 41.2988 46.8546 38.2046L39.0246 35.0841V30.3355L47.6149 36.9249C49.4093 33.67 50.4151 29.9615 50.4151 25.9865C50.4151 17.6097 45.8474 10.2475 39.0246 6.1921V3.25855ZM26.9274 0.350647C31.2772 0.350647 35.3816 1.3915 39.0246 3.25855V6.19345C35.6806 4.2184 31.766 3.04525 27.6342 2.9116L30.6241 23.9068L39.0246 30.3362V35.0848L26.8724 30.2558L14.802 35.1111V30.3888L23.2568 23.9061L26.22 2.91092C22.0331 3.04457 18.146 4.2184 14.802 6.1921V3.25855C18.4182 1.3915 22.5501 0.350647 26.9274 0.350647ZM39.0246 48.7164C35.3816 50.5835 31.2765 51.65 26.9274 51.65C22.5508 51.65 18.4189 50.5835 14.8027 48.7427V45.7815C18.3371 47.8882 22.4958 49.089 26.9274 49.089C31.3315 49.089 35.4641 47.8882 39.0246 45.7815V48.7164ZM14.8027 48.7427C6.4564 44.4477 0.774902 35.8577 0.774902 25.9871C0.774902 16.1166 6.4564 7.55357 14.8027 3.25855V6.19345C7.95171 10.2482 3.38465 17.5841 3.38465 25.9871C3.38465 29.9615 4.41797 33.724 6.21234 36.9782L14.8027 30.3888V35.1111L7.00022 38.258C8.95753 41.3272 11.6216 43.9138 14.8027 45.7815V48.7427Z" fill="black"/>
</svg>
