<svg width="29" height="16" viewBox="0 0 29 16" fill="none" xmlns="http://www.w3.org/2000/svg">
<path d="M28.4363 8.72696C28.3867 8.4514 28.3931 8.50182 27.6445 6.01367C27.545 5.68288 27.2489 5.44987 26.9039 5.43095L19.4423 5.02207L18.7117 3.1956C18.0853 1.62943 16.5905 0.617432 14.9037 0.617432C14.5099 0.617432 3.13233 0.617432 2.68835 0.617432C2.32956 0.617432 2.01244 0.850607 1.90543 1.19304C0.443484 5.87132 0.529448 5.5892 0.517363 5.64908C0.493903 5.76381 0.501012 5.32978 0.501012 10.7342C0.501012 12.0911 1.60493 13.195 2.96182 13.195H4.60762C4.96564 14.4558 6.12659 15.3824 7.50066 15.3824C8.87472 15.3824 10.0356 14.4558 10.3937 13.195H18.6069C18.9649 14.4558 20.1259 15.3824 21.4999 15.3824C22.874 15.3824 24.0349 14.4558 24.393 13.195H24.7548C27.1277 13.195 28.8587 11.012 28.4363 8.72696ZM17.1886 3.80489L17.6635 4.99221H13.3607L12.5404 2.25797H14.9038C15.9158 2.25803 16.8127 2.86519 17.1886 3.80489ZM10.8276 2.25803L11.6479 4.99226H7.18879L7.73564 2.25803H10.8276ZM3.29146 2.25803H6.06256L5.51571 4.99226H2.43702L3.29146 2.25803ZM7.5006 13.7418C6.74677 13.7418 6.13348 13.1285 6.13348 12.3747C6.13348 11.6209 6.74677 11.0076 7.5006 11.0076C8.25443 11.0076 8.86772 11.6209 8.86772 12.3747C8.86772 13.1285 8.25449 13.7418 7.5006 13.7418ZM21.4999 13.7418C20.7461 13.7418 20.1328 13.1285 20.1328 12.3747C20.1328 11.6209 20.7461 11.0076 21.4999 11.0076C22.2537 11.0076 22.867 11.6209 22.867 12.3747C22.867 13.1285 22.2538 13.7418 21.4999 13.7418ZM24.8335 11.5532C24.7832 11.5548 24.806 11.5544 24.3929 11.5544C24.0349 10.2935 22.874 9.36699 21.4999 9.36699C20.1258 9.36699 18.9649 10.2935 18.6069 11.5544H10.3936C10.0356 10.2935 8.87467 9.36699 7.5006 9.36699C6.12654 9.36699 4.96564 10.2935 4.60756 11.5544H2.96177C2.50947 11.5544 2.1415 11.1864 2.1415 10.7341V9.6951H3.12582C3.57883 9.6951 3.9461 9.32783 3.9461 8.87483C3.9461 8.42182 3.57883 8.05455 3.12582 8.05455H2.1415V6.63275H5.3679V7.56239C5.3679 8.0154 5.73516 8.38266 6.18817 8.38266C6.64118 8.38266 7.00844 8.0154 7.00844 7.56239V6.63275H11.9301V7.56239C11.9301 8.0154 12.2973 8.38266 12.7503 8.38266C13.2033 8.38266 13.5706 8.0154 13.5706 7.56239V6.63275H18.8526L26.2394 7.03747L26.5454 8.05455H25.9841C25.5311 8.05455 25.1638 8.42182 25.1638 8.87483C25.1638 9.32783 25.5311 9.6951 25.9841 9.6951H26.8398C26.711 10.6755 25.9123 11.5168 24.8335 11.5532Z" fill="black"/>
</svg>
