<svg width="14" height="7" viewBox="0 0 14 7" fill="none" xmlns="http://www.w3.org/2000/svg">
<path fill-rule="evenodd" clip-rule="evenodd" d="M13.3541 6.85384C13.3076 6.9004 13.2525 6.93735 13.1917 6.96255C13.131 6.98776 13.0659 7.00073 13.0001 7.00073C12.9343 7.00073 12.8692 6.98776 12.8084 6.96255C12.7477 6.93735 12.6925 6.9004 12.6461 6.85384L7.00008 1.20684L1.35408 6.85384C1.3076 6.90033 1.25241 6.9372 1.19167 6.96236C1.13093 6.98752 1.06583 7.00047 1.00008 7.00047C0.934339 7.00047 0.869239 6.98752 0.808499 6.96236C0.74776 6.9372 0.692571 6.90033 0.646083 6.85384C0.599595 6.80735 0.562719 6.75216 0.53756 6.69142C0.5124 6.63068 0.499452 6.56558 0.499452 6.49984C0.499452 6.43409 0.5124 6.36899 0.53756 6.30826C0.562719 6.24752 0.599595 6.19233 0.646083 6.14584L6.64608 0.145839C6.69253 0.0992755 6.7477 0.062333 6.80845 0.0371265C6.86919 0.0119201 6.93432 -0.00105476 7.00008 -0.00105476C7.06585 -0.00105476 7.13097 0.0119201 7.19172 0.0371265C7.25246 0.062333 7.30764 0.0992755 7.35408 0.145839L13.3541 6.14584C13.4006 6.19228 13.4376 6.24746 13.4628 6.30821C13.488 6.36895 13.501 6.43407 13.501 6.49984C13.501 6.56561 13.488 6.63073 13.4628 6.69147C13.4376 6.75222 13.4006 6.80739 13.3541 6.85384Z" fill="black"/>
</svg>
