<svg width="28" height="14" viewBox="0 0 28 14" fill="none" xmlns="http://www.w3.org/2000/svg">
<path d="M27.2609 5.74614L18.9519 4.92042L18.2119 3.07046C17.5854 1.50423 16.0906 0.492188 14.4037 0.492188C13.1863 0.492188 7.38532 0.492188 6.27414 0.492188C5.11455 0.492188 4.00451 0.986012 3.22801 1.84711C-0.0519002 5.42523 0.164059 5.16995 0.0893018 5.31706C0.0402475 5.41397 0.0117009 5.5176 0.00349779 5.62298C-0.00125998 5.6844 0.00021657 5.51738 0.00021657 7.90332C0.00021657 10.0286 1.72926 11.7577 3.85456 11.7577H4.56484C4.90805 12.7738 5.86967 13.5077 7.00011 13.5077C8.13054 13.5077 9.09216 12.7738 9.43538 11.7577H18.5647C18.9079 12.7738 19.8696 13.5077 21 13.5077C22.1304 13.5077 23.0921 12.7738 23.4353 11.7577H24.1455C26.2708 11.7577 27.9999 10.0286 27.9999 7.90332V6.5624C28.0001 6.14076 27.6804 5.78781 27.2609 5.74614ZM16.6886 3.67973L17.1635 4.8671H12.8605L12.0402 2.13274H14.4036C15.4158 2.13274 16.3127 2.73999 16.6886 3.67973ZM7.82052 2.13274H10.3274L11.1477 4.8671H7.82052V2.13274ZM4.43988 2.95294C4.89487 2.44659 5.52498 2.16047 6.17991 2.13526V4.8671H2.6853L4.43988 2.95294ZM7.00022 11.867C6.48758 11.867 6.07054 11.45 6.07054 10.9374C6.07054 10.4247 6.48758 10.0077 7.00022 10.0077C7.51285 10.0077 7.9299 10.4247 7.9299 10.9374C7.9299 11.45 7.51285 11.867 7.00022 11.867ZM21.0001 11.867C20.4875 11.867 20.0704 11.45 20.0704 10.9374C20.0704 10.4247 20.4875 10.0077 21.0001 10.0077C21.5127 10.0077 21.9298 10.4247 21.9298 10.9374C21.9298 11.45 21.5127 11.867 21.0001 11.867ZM26.3594 7.90332C26.3594 9.12399 25.3664 10.1171 24.1457 10.1171H23.4354C23.0922 9.10097 22.1306 8.36707 21.0002 8.36707C19.8697 8.36707 18.9081 9.10097 18.5649 10.1171H9.43549C9.09227 9.10097 8.13065 8.36707 7.00022 8.36707C5.86978 8.36707 4.90816 9.10097 4.56495 10.1171H3.85467C2.634 10.1171 1.64094 9.12399 1.64094 7.90332V6.50771H11.4299V7.43739C11.4299 7.89042 11.7972 8.2577 12.2502 8.2577C12.7033 8.2577 13.0705 7.89042 13.0705 7.43739V6.50771H18.3345L26.3595 7.30521V7.90332H26.3594Z" fill="black"/>
</svg>
