<svg width="29" height="16" viewBox="0 0 29 16" fill="none" xmlns="http://www.w3.org/2000/svg">
<path d="M28.3367 8.31782L27.6438 6.01502C27.5452 5.68729 27.2535 5.45521 26.912 5.43284L20.7911 5.03145L20.0574 3.19687C19.4303 1.63068 17.9356 0.618733 16.2494 0.618733C9.57529 0.618733 10.0567 0.601015 9.88197 0.655263C9.67597 0.718916 9.50338 0.863668 9.40358 1.04763C9.31991 1.20146 9.38521 0.953626 8.57723 4.99355H1.32028C0.867266 4.99355 0.5 5.36082 0.5 5.81383V10.7355C0.5 12.0924 1.60393 13.1963 2.96084 13.1963H4.60664C4.96467 14.4572 6.12564 15.3838 7.49971 15.3838C8.87379 15.3838 10.0347 14.4572 10.3928 13.1963H18.6061C18.9641 14.4572 20.1251 15.3838 21.4992 15.3838C22.8732 15.3838 24.0341 14.4573 24.3922 13.1964C24.709 13.1965 24.8179 13.1968 24.8862 13.1942C27.3467 13.1112 29.0489 10.6838 28.3367 8.31782ZM18.5343 3.80639L19.0091 4.99355H13.9293L13.6559 2.25929H16.2494C17.2611 2.25935 18.158 2.86668 18.5343 3.80639ZM10.7971 2.25935H12.0071L12.2806 4.99361H10.2502L10.7971 2.25935ZM7.49971 13.7433C6.74588 13.7433 6.13258 13.13 6.13258 12.3761C6.13258 11.6223 6.74588 11.009 7.49971 11.009C8.25355 11.009 8.86685 11.6223 8.86685 12.3761C8.86685 13.13 8.25355 13.7433 7.49971 13.7433ZM21.4991 13.7433C20.7453 13.7433 20.132 13.13 20.132 12.3761C20.132 11.6223 20.7453 11.009 21.4991 11.009C22.253 11.009 22.8663 11.6223 22.8663 12.3761C22.8663 13.13 22.253 13.7433 21.4991 13.7433ZM24.8287 11.5547C24.7921 11.5559 24.7882 11.5558 24.3922 11.5559C24.0342 10.295 22.8732 9.36843 21.4991 9.36843C20.1251 9.36843 18.9642 10.295 18.6061 11.5558H10.3928C10.0348 10.295 8.87379 9.36843 7.49971 9.36843C6.12564 9.36843 4.96472 10.295 4.60664 11.5558H2.96084C2.50853 11.5558 2.14056 11.1879 2.14056 10.7356V9.69654H3.12489C3.57791 9.69654 3.94517 9.32928 3.94517 8.87626C3.94517 8.42325 3.57791 8.05598 3.12489 8.05598H2.14056V6.63417H12.3667V7.56382C12.3667 8.01683 12.734 8.3841 13.187 8.3841C13.64 8.3841 14.0073 8.01683 14.0073 7.56382V6.63417H20.1599L26.2368 7.03266L26.5447 8.05598H25.9834C25.5304 8.05598 25.1631 8.42325 25.1631 8.87626C25.1631 9.32928 25.5304 9.69654 25.9834 9.69654H26.8395C26.7082 10.6965 25.8896 11.5189 24.8287 11.5547Z" fill="black"/>
</svg>
