<svg width="29" height="14" viewBox="0 0 29 14" fill="none" xmlns="http://www.w3.org/2000/svg">
<path d="M27.7608 5.74621L19.4521 4.92053L18.7121 3.0706C18.0857 1.50443 16.5909 0.492432 14.9041 0.492432C10.0156 0.492432 19.9187 0.492432 9.83723 0.492432C8.67638 0.492432 7.56524 0.987274 6.78872 1.85014L4.07335 4.86721H2.96221C1.60532 4.86721 0.501397 5.97113 0.501397 7.32802C0.501397 7.81105 0.489257 8.08174 0.536559 8.42155C0.792046 10.3233 2.43385 11.7575 4.35558 11.7575H5.06588C5.40908 12.7735 6.37065 13.5074 7.50104 13.5074C8.63143 13.5074 9.59301 12.7735 9.93621 11.7575H19.0651C19.4083 12.7735 20.3699 13.5074 21.5003 13.5074C22.6307 13.5074 23.5922 12.7735 23.9354 11.7575H24.6457C26.7709 11.7575 28.4999 10.0285 28.4999 7.90331V6.56244C28.5 6.14087 28.1803 5.78794 27.7608 5.74621ZM17.189 3.6799L17.6639 4.86721H13.3611L12.5408 2.13297H14.9042C15.9162 2.13303 16.8131 2.74019 17.189 3.6799ZM8.00813 2.94761C8.47405 2.42991 9.14071 2.13303 9.83723 2.13303H10.828L11.6483 4.86726H6.28048L8.00813 2.94761ZM7.50104 11.8669C6.98843 11.8669 6.5714 11.4499 6.5714 10.9373C6.5714 10.4247 6.98843 10.0076 7.50104 10.0076C8.01366 10.0076 8.43068 10.4247 8.43068 10.9373C8.43068 11.4499 8.01366 11.8669 7.50104 11.8669ZM21.5003 11.8669C20.9877 11.8669 20.5707 11.4499 20.5707 10.9373C20.5707 10.4247 20.9877 10.0076 21.5003 10.0076C22.0129 10.0076 22.43 10.4247 22.43 10.9373C22.43 11.4499 22.0129 11.8669 21.5003 11.8669ZM26.8594 7.90336C26.8594 9.12398 25.8664 10.117 24.6458 10.117H23.9356C23.5924 9.10096 22.6308 8.36709 21.5004 8.36709C20.37 8.36709 19.4084 9.10096 19.0652 10.117H9.93621C9.59301 9.10096 8.63143 8.36709 7.50104 8.36709C6.37065 8.36709 5.40908 9.10096 5.06588 10.117H4.35558C3.59819 10.117 2.91666 9.7295 2.51593 9.13267H2.68879C3.14179 9.13267 3.50906 8.76541 3.50906 8.3124C3.50906 7.85939 3.14179 7.49213 2.68879 7.49213H2.14194V7.32808C2.14194 6.87578 2.50991 6.50781 2.96221 6.50781H11.9305V7.43745C11.9305 7.89045 12.2978 8.25772 12.7508 8.25772C13.2038 8.25772 13.571 7.89045 13.571 7.43745V6.50781H18.8348L26.8594 7.30527V7.90336Z" fill="black"/>
</svg>
